PathFileType	4	(X/Y/Z)	Patient4_TMGait_0pt5_02_left_13.trc.trc
DataRate	CameraRate	NumFrames	NumMarkers	Units	OrigDataRate	OrigDataStartFrame	OrigNumFrames
76.923076923077	76.923076923077	4	33	mm	76.923076923077	89	       141
Frame#	Time	Sacral			L.Shoulder			Chest			R.Shoulder			Neck			R.ASIS			L.ASIS			R.Thigh.Superior			R.Thigh.Lateral			R.Thigh.Inferior			R.Patella			L.Thigh.Superior			L.Thigh.Lateral			L.Thigh.Inferior			L.Patella			L.Shank.Superior			L.Shank.Lateral			L.Shank.Inferior			R.Shank.Superior			R.Shank.Lateral			R.Shank.Inferior			R.Heel			R.Midfoot.Superior			R.Midfoot.Lateral			R.Toe			L.Heel			L.Midfoot.Lateral			L.Midfoot.Superior			L.Toe			L.Elbow			L.Wrist			R.Elbow			R.Wrist			
		X1	Y1	Z1	X2	Y2	Z2	X3	Y3	Z3	X4	Y4	Z4	X5	Y5	Z5	X6	Y6	Z6	X7	Y7	Z7	X8	Y8	Z8	X9	Y9	Z9	X10	Y10	Z10	X11	Y11	Z11	X12	Y12	Z12	X13	Y13	Z13	X14	Y14	Z14	X15	Y15	Z15	X16	Y16	Z16	X17	Y17	Z17	X18	Y18	Z18	X19	Y19	Z19	X20	Y20	Z20	X21	Y21	Z21	X22	Y22	Z22	X23	Y23	Z23	X24	Y24	Z24	X25	Y25	Z25	X26	Y26	Z26	X27	Y27	Z27	X28	Y28	Z28	X29	Y29	Z29	X30	Y30	Z30	X31	Y31	Z31	X32	Y32	Z32	X33	Y33	Z33	

89	17.474000000000	612.752590175916	1009.753891782264	495.702758827258	818.757691488826	1433.891202584775	331.126380836746	906.707078144485	1356.804505111390	497.551515763373	814.480208997182	1430.067288325165	668.142091809929	807.962835921628	1492.117666987027	483.519594551652	832.559130715152	936.139233167956	621.218707018328	831.458190452396	957.532723301236	346.554041848211	889.550818918931	747.120763649143	589.889576098817	816.429788953478	634.302102702211	647.903444678964	898.802826952757	588.105814923041	567.914795995657	907.887689788310	500.478416220313	573.973927503238	866.806326475438	740.793548817169	370.322874711279	781.444507757831	628.321770470033	302.561729125991	864.841781246877	542.859884432047	361.909838667674	856.809251606673	457.705348246466	360.818886982351	790.460485376955	399.260662580017	354.640123512925	654.307044446435	351.472484930448	299.818659647817	639.753507053489	225.628226551861	360.469126063075	888.068921638780	410.972719546819	581.155647741802	825.961494791082	302.213863385150	643.346236593138	875.477864572686	210.684797512395	579.952520478486	752.156348500258	43.147305076195	549.190870090393	922.857393361349	97.557225581284	584.172911121061	835.488787315508	36.768718277422	623.848770114641	1043.590272013596	43.907348515873	612.833326714777	448.612840980402	154.584232724175	391.225257470515	511.971948122645	109.949393453660	315.708851702599	614.208040066113	125.005629964961	341.426499439560	699.110947314974	31.176593393073	322.053047990589	825.541516457236	1080.503835214219	207.128865466542	997.243270982982	882.156389335620	216.615720799190	719.286281625479	1091.292316222262	771.661582679826	784.835169890628	837.964411698197	760.586994343103	
90	17.487000000000	613.057398358367	1010.013596322480	499.208491854949	817.926562031433	1434.277801084679	333.539192924926	907.163855475480	1357.057336009621	499.305839063523	816.145562688664	1430.165969860821	670.742334841250	808.286445386701	1492.429820966670	486.147160836304	833.422924301065	936.759086277278	623.489084937987	831.605150238725	957.904928119042	348.928455910608	888.883627861268	746.242892104439	592.982991724720	814.785500716196	634.207547270423	650.225224137887	896.766312033375	587.613742097838	569.970038177437	905.229297608811	499.860325455003	575.568958484506	871.651373685507	743.563909596432	373.255897530915	790.844154211153	629.068139100740	304.325110230870	876.702973419073	545.542500342943	363.873741197570	870.009492781723	459.247651595268	362.234118764171	801.976921272209	400.719407226950	355.833564398934	664.278618686041	357.572207844137	300.683947570173	645.718309716407	231.861556491479	360.544438641712	884.636395904821	410.499923759104	582.417730644049	821.699071526771	302.034743909477	644.135151095040	870.399562744516	210.357878996589	580.427431384430	745.785875384192	43.246609740080	549.323871458420	916.625323791811	97.496759413663	584.380227729221	829.086969177496	36.782042840527	623.985183562478	1037.244100372695	43.484783849917	613.063282841924	451.902231810135	169.428397151986	390.010434244391	513.641085471631	121.337164942608	314.973505454467	616.643299290380	130.844964106700	341.416252156615	696.163073800343	30.549098889762	322.660529405492	820.886571026680	1079.818919683318	211.800223608668	983.286611180868	873.512044393734	220.272284996951	728.834019366741	1089.478946516502	776.353038301120	808.068449253735	840.234870068981	762.312300096252	
91	17.500000000000	613.178811011250	1010.218988341236	502.526624031597	816.944813213845	1434.464570007131	335.664091711463	907.457772730692	1357.230618812229	500.835083000789	817.582741770623	1430.247399772155	673.022136925238	808.480792455562	1492.662269689902	488.436093364766	834.026914146268	937.295285547954	625.776425556075	831.479411224557	958.094475969986	351.356977882168	888.115594659448	745.423445727372	596.132119650449	812.996968740297	634.042790770123	652.464243522093	894.717608294606	587.115582400730	572.066727297103	902.512954173775	499.240474877581	577.173876283847	876.147491091511	746.449213666516	376.275480479402	799.854326535422	630.221862178190	306.055961444585	887.841876841997	548.673720049194	366.038109427812	882.633862603245	461.372788753214	363.910341862202	813.267372367395	402.631632006223	357.130608412620	674.401443304126	363.505517738097	301.485372711869	652.332779394863	237.935144409175	360.625072156419	881.152197943317	410.005398572771	583.658948614113	817.355783932818	301.828074613726	644.871824864257	865.275465079324	210.017992284183	580.895618334682	739.354978001012	43.351392395776	549.446073045033	910.362481325551	97.402189706412	584.589775159422	822.626615403085	36.793106178907	624.109573581654	1030.840616882390	43.048492320551	613.272575114836	456.372049396973	182.932073377633	388.630927639183	516.814036487431	131.965199538777	314.105597947566	620.274912266947	136.643719793657	341.412752814896	695.068350708300	30.272791011880	323.218097526544	815.965563622071	1078.960489377459	216.256981362220	968.543886755750	865.164456904695	223.674084963013	738.641747671324	1087.875272733190	780.927472962418	831.658271530753	843.663197592233	763.867634228517	
92	17.513000000000	613.112656886314	1010.425883790200	505.644562292107	815.889699146394	1434.490781588271	337.516331330823	907.608402391649	1357.348525712932	502.170262967021	818.807929305781	1430.374752246029	674.985099219984	808.592449995750	1492.855664541566	490.383954757354	834.367246227856	937.757236842898	628.093263925429	831.024005637200	958.150335726227	353.832948648047	887.280666803689	744.716720679796	599.224022575467	811.122373658764	633.838846542235	654.561657091760	892.686524027049	586.629174293103	574.123029603438	899.768944205471	498.628643244862	578.714033262733	880.203751314521	749.464499635618	379.381278211000	808.335269950731	631.804625313741	307.772095602978	898.124686762827	552.231821053931	368.385407019080	894.540565705144	464.067833938026	365.795810237073	824.217592066358	404.977653221617	358.505233145343	684.552152501464	369.063339609030	302.234531291210	659.674087113391	243.565112234783	360.699328194019	877.644901309696	409.505968070525	584.831872441157	812.977425769558	301.622631390957	645.555058789495	860.117311282348	209.680470399511	581.337980799826	732.871959336298	43.462383850740	549.565215119693	904.064628579579	97.292819073880	584.793977606234	816.119687634903	36.807248425423	624.225272506206	1024.389069162574	42.627154787210	613.462601470732	462.115234860878	194.386331974848	387.166873483136	521.668831142674	141.255720953866	313.130704351552	625.337641332154	142.076764865900	341.355444375632	696.341326388189	30.410963858048	323.608135838374	810.786399556335	1078.004553913708	220.482110590519	953.061564854642	857.242451474484	226.808645194746	748.715315671883	1086.548786441291	785.299646053048	855.486516073605	848.366660410184	765.180054556787	
